#!OML:ASF F:\VICON\USERDATA\INSTALL\rory3\rory3.ASF
:FULLY-SPECIFIED
:DEGREES
1087
root 0.0671838 16.2425 -0.290041 -156.657 -16.3164 179.532
lowerback -6.20185 4.54399 4.75027
upperback -5.67793 5.47138 -0.650718
thorax -1.89882 2.41079 -3.0471
lowerneck -6.1535 14.4505 10.3133
upperneck 10.3267 20.6807 -18.949
head 7.30901 9.16636 -5.60946
rclavicle 8.34896e-015 1.35174e-014
rhumerus -207.282 -161.271 100.097
rradius 32.7434
rwrist 2.46855
rhand -3.86762 19.0114
rfingers 7.12502
rthumb 21.8811 -9.77141
lclavicle 8.34896e-015 1.35174e-014
lhumerus -20.3526 -29.5187 112.508
lradius 32.4723
lwrist -23.2878
lhand 9.53293 9.30614
lfingers 7.12502
lthumb 34.6832 35.9356
rfemur -39.0835 15.442 27.0759
rtibia 43.5441
rfoot -55.1219 -35.2995
rtoes 36.6565
lfemur -86.8925 28.7022 -47.5931
ltibia 91.8925
lfoot 1.50741 34.4168
ltoes 22.8492
1088
root 0.0489378 16.2466 -0.331417 -156.825 -16.1464 179.787
lowerback -6.43854 4.74959 4.80742
upperback -5.55963 5.73224 -0.636245
thorax -1.61878 2.55159 -3.02247
lowerneck -6.48178 14.6383 9.98384
upperneck 10.6186 20.9661 -18.6785
head 7.43436 9.26907 -5.40653
rclavicle 4.75095e-014 1.59028e-014
rhumerus -206.911 -161.59 99.1964
rradius 32.3967
rwrist 2.81158
rhand -4.01933 19.5867
rfingers 7.12502
rthumb 21.7354 -9.21297
lclavicle 4.75095e-014 1.59028e-014
lhumerus -20.9495 -31.9487 113.341
lradius 33.2794
lwrist -22.8167
lhand 11.3105 8.97372
lfingers 7.12502
lthumb 36.3683 35.1989
rfemur -38.6487 14.8766 27.5776
rtibia 43.449
rfoot -54.4239 -34.9304
rtoes 36.0895
lfemur -86.3862 29.221 -46.6264
ltibia 91.4397
lfoot -7.00011 31.6495
ltoes 32.718
1089
root 0.0408533 16.2307 -0.346209 -156.797 -16.4288 179.828
lowerback -6.38098 4.83658 4.91031
upperback -5.58722 5.8492 -0.742402
thorax -1.64902 2.6052 -3.18597
lowerneck -6.55624 14.75 9.71728
upperneck 10.6752 21.1174 -18.4172
head 7.42575 9.34291 -5.25654
rclavicle 3.90612e-014 7.15625e-015
rhumerus -206.506 -161.848 98.2473
rradius 31.838
rwrist 2.8459
rhand -4.2609 19.8796
rfingers 7.12502
rthumb 21.5034 -8.94681
lclavicle 3.90612e-014 7.15625e-015
lhumerus -21.664 -34.3741 114.083
lradius 34.245
lwrist -22.3871
lhand 12.754 8.2218
lfingers 7.12502
lthumb 37.7335 34.093
rfemur -38.6522 14.7206 27.6893
rtibia 43.4838
rfoot -54.659 -34.4194
rtoes 36.5712
lfemur -86.2152 28.7859 -46.7442
ltibia 90.29
lfoot -3.56234 31.2944
ltoes 22.9922
1090
root 0.036231 16.2394 -0.365658 -156.775 -16.4165 179.635
lowerback -6.26377 4.86391 4.59575
upperback -5.60568 5.91083 -0.880716
thorax -1.74267 2.64309 -3.16179
lowerneck -5.79527 14.8981 9.97927
upperneck 10.029 21.2874 -18.794
head 7.18733 9.49429 -5.44282
rclavicle 1.08636e-013 3.65764e-014
rhumerus -206.042 -162.417 97.1955
rradius 31.4524
rwrist 2.46716
rhand -3.81352 19.4796
rfingers 7.12502
rthumb 21.933 -9.29704
lclavicle 1.08636e-013 3.65764e-014
lhumerus -22.3837 -36.637 114.656
lradius 35.3959
lwrist -21.3806
lhand 13.9628 7.88398
lfingers 7.12502
lthumb 38.8744 33.4399
rfemur -38.5034 14.6245 27.5515
rtibia 43.4344
rfoot -54.427 -34.588
rtoes 36.1981
lfemur -85.2538 28.6888 -45.7492
ltibia 89.5279
lfoot -13.2008 27.2108
ltoes 34.964
1091
root 0.0254577 16.2301 -0.391874 -156.653 -16.6384 179.587
lowerback -6.19978 4.66707 4.41377
upperback -5.80266 5.64537 -0.854885
thorax -2.025 2.49763 -3.06679
lowerneck -4.82288 15.2354 10.4035
upperneck 9.39209 21.7538 -19.4844
head 7.02325 9.77836 -5.71921
rclavicle -2.31584e-014 -9.54166e-015
rhumerus -205.817 -163.679 96.031
rradius 31.2941
rwrist 1.88811
rhand -3.11945 18.7691
rfingers 7.12502
rthumb 22.5993 -9.92804
lclavicle -2.31584e-014 -9.54166e-015
lhumerus -23.1842 -37.9272 114.977
lradius 36.7725
lwrist -20.3498
lhand 15.9795 8.41571
lfingers 7.12502
lthumb 40.7728 33.4039
rfemur -38.581 15.0746 27.3914
rtibia 43.4986
rfoot -55.2949 -34.5472
rtoes 36.6821
lfemur -85.1655 28.4567 -46.1525
ltibia 88.1888
lfoot -8.96501 27.4441
ltoes 25.1017
1092
root 0.0128957 16.2289 -0.41836 -156.662 -16.9696 179.783
lowerback -6.11038 4.98201 4.70232
upperback -6.1971 6.03149 -1.18232
thorax -2.3922 2.64435 -3.56457
lowerneck -3.89026 14.7852 11.5119
upperneck 9.68327 21.1706 -19.7408
head 7.01475 9.57424 -6.11623
rclavicle 5.63555e-014 1.59028e-014
rhumerus -206.369 -163.222 95.3711
rradius 31.05
rwrist 1.64559
rhand -2.94155 18.8227
rfingers 7.12502
rthumb 22.7701 -9.85355
lclavicle 5.63555e-014 1.59028e-014
lhumerus -25.2455 -40.1511 116.123
lradius 38.3711
lwrist -19.5412
lhand 17.8968 8.56576
lfingers 7.12502
lthumb 42.571 32.9616
rfemur -38.5366 15.2242 27.6068
rtibia 43.5402
rfoot -55.7849 -34.5582
rtoes 37.1742
lfemur -84.9211 28.2848 -45.8605
ltibia 87.0091
lfoot -7.32625 27.1676
ltoes 17.4679
1093
root 0.00139811 16.2263 -0.443256 -156.627 -17.2969 179.791
lowerback -6.33921 4.92867 4.45841
upperback -6.02635 5.96702 -0.951227
thorax -2.14022 2.63899 -3.16935
lowerneck -4.73256 14.7884 12.1918
upperneck 10.6812 21.3313 -20.4334
head 7.67733 9.51168 -6.34703
rclavicle 5.64548e-014 -1.43125e-014
rhumerus -205.648 -164.01 94.8437
rradius 30.5179
rwrist 1.37387
rhand -2.95217 19.2473
rfingers 7.12502
rthumb 22.7599 -9.43013
lclavicle 5.64548e-014 -1.43125e-014
lhumerus -25.6323 -41.5532 116.614
lradius 39.7302
lwrist -18.4313
lhand 18.1373 8.42985
lfingers 7.12502
lthumb 42.7961 32.7474
rfemur -38.4966 15.3305 27.6267
rtibia 43.5801
rfoot -56.2675 -34.5478
rtoes 37.8053
lfemur -84.3943 27.8802 -45.4631
ltibia 85.7288
lfoot -8.27832 27.0016
ltoes 14.7069
1094
root -0.0104175 16.2171 -0.468138 -156.375 -17.4863 179.523
lowerback -7.12009 4.83795 3.77599
upperback -5.6016 5.85621 -0.718666
thorax -1.3643 2.64321 -2.47877
lowerneck -5.16593 14.9728 12.0113
upperneck 10.5851 21.6547 -21.0756
head 7.84785 9.57856 -6.4449
rclavicle 6.40087e-014 -6.36111e-015
rhumerus -204.526 -165.289 94.21
rradius 30.3085
rwrist 0.803675
rhand -2.42667 18.5649
rfingers 7.12502
rthumb 23.2641 -10.0497
lclavicle 6.40087e-014 -6.36111e-015
lhumerus -25.4255 -42.842 116.739
lradius 40.9409
lwrist -16.7025
lhand 18.027 8.78047
lfingers 7.12502
lthumb 42.6928 33.1341
rfemur -38.6791 15.0856 27.3869
rtibia 43.681
rfoot -56.1879 -34.7581
rtoes 37.908
lfemur -83.7385 27.3728 -45.4166
ltibia 84.2036
lfoot -11.3132 26.0399
ltoes 16.8185
1095
root -0.025722 16.2249 -0.490146 -156.171 -17.8256 179.62
lowerback -5.17611 5.38005 4.42354
upperback -7.52792 6.52195 -1.55176
thorax -4.25227 2.76121 -3.92176
lowerneck -3.50838 14.4264 12.869
upperneck 11.9135 20.9194 -19.8816
head 7.78725 9.38814 -6.42975
rclavicle -7.45443e-016 1.51076e-014
rhumerus -207.746 -164.346 93.9025
rradius 30.9128
rwrist 0.790805
rhand -1.43866 17.3763
rfingers 7.12502
rthumb 24.2117 -11.1153
lclavicle -7.45443e-016 1.51076e-014
lhumerus -30.7851 -44.2175 119.801
lradius 42.4495
lwrist -15.0113
lhand 18.4178 9.46759
lfingers 7.12502
lthumb 43.0584 33.6929
rfemur -38.8469 14.5463 27.5962
rtibia 43.7365
rfoot -55.9935 -34.4913
rtoes 38.1898
lfemur -83.3193 26.8976 -44.7196
ltibia 82.9646
lfoot -15.5882 25.7456
ltoes 22.2836
1096
root -0.0343245 16.2179 -0.517809 -155.869 -17.8284 179.495
lowerback -7.75403 4.89453 3.17592
upperback -5.73726 5.91046 -0.580159
thorax -1.22543 2.67652 -1.9584
lowerneck -4.90778 15.0799 11.6046
upperneck 10.7644 21.8578 -21.0504
head 7.84515 9.65661 -6.36511
rclavicle -4.2043e-014 -4.77083e-015
rhumerus -204.02 -166.925 93.1127
rradius 30.0071
rwrist 0.707593
rhand -1.17059 17.5609
rfingers 7.12502
rthumb 24.4687 -10.8962
lclavicle -4.2043e-014 -4.77083e-015
lhumerus -26.3299 -44.7664 117.297
lradius 43.0479
lwrist -13.5384
lhand 18.0618 9.76303
lfingers 7.12502
lthumb 42.7254 34.1053
rfemur -39.1058 14.5343 27.4368
rtibia 43.8307
rfoot -56.1654 -34.3223
rtoes 38.1174
lfemur -83.2389 26.767 -45.1095
ltibia 81.3475
lfoot -15.3691 26.4919
ltoes 18.3679
